<svg width="142" height="43" viewBox="0 0 142 43" fill="none" xmlns="http://www.w3.org/2000/svg">
<path d="M13.225 25.625C14.175 25.625 14.9583 25.4667 15.575 25.15C16.1917 24.8167 16.6083 24.55 16.825 24.35L20.3 29.5C20.0333 29.7167 19.575 30 18.925 30.35C18.275 30.6833 17.4583 30.975 16.475 31.225C15.5083 31.475 14.4 31.6 13.15 31.6C10.8 31.6 8.73333 31.1583 6.95 30.275C5.16667 29.375 3.775 28.1083 2.775 26.475C1.79167 24.8417 1.3 22.925 1.3 20.725C1.3 18.5083 1.79167 16.5917 2.775 14.975C3.775 13.3583 5.16667 12.1083 6.95 11.225C8.73333 10.325 10.8 9.875 13.15 9.875C14.3833 9.875 15.4833 10.0083 16.45 10.275C17.4333 10.525 18.2583 10.8167 18.925 11.15C19.5917 11.4667 20.0583 11.7417 20.325 11.975L16.775 17.175C16.6583 17.0583 16.4417 16.8917 16.125 16.675C15.825 16.4583 15.4333 16.2667 14.95 16.1C14.4667 15.9333 13.8917 15.85 13.225 15.85C12.4083 15.85 11.6417 16.0583 10.925 16.475C10.225 16.8917 9.65833 17.4667 9.225 18.2C8.79167 18.9333 8.575 19.775 8.575 20.725C8.575 21.675 8.79167 22.525 9.225 23.275C9.65833 24.0083 10.225 24.5833 10.925 25C11.6417 25.4167 12.4083 25.625 13.225 25.625ZM30.3391 31.6C28.0891 31.6 26.0891 31.1417 24.3391 30.225C22.6057 29.2917 21.2391 28.0167 20.2391 26.4C19.2557 24.7667 18.7641 22.9 18.7641 20.8C18.7641 18.7 19.2557 16.8333 20.2391 15.2C21.2391 13.55 22.6057 12.25 24.3391 11.3C26.0891 10.35 28.0891 9.875 30.3391 9.875C32.5891 9.875 34.5724 10.35 36.2891 11.3C38.0057 12.25 39.3474 13.55 40.3141 15.2C41.2807 16.8333 41.7641 18.7 41.7641 20.8C41.7641 22.9 41.2807 24.7667 40.3141 26.4C39.3474 28.0167 38.0057 29.2917 36.2891 30.225C34.5724 31.1417 32.5891 31.6 30.3391 31.6ZM30.3391 25.35C31.2057 25.35 31.9557 25.1583 32.5891 24.775C33.2224 24.3917 33.7141 23.85 34.0641 23.15C34.4141 22.45 34.5891 21.6583 34.5891 20.775C34.5891 19.875 34.4141 19.075 34.0641 18.375C33.7141 17.675 33.2224 17.125 32.5891 16.725C31.9557 16.325 31.2057 16.125 30.3391 16.125C29.4724 16.125 28.7141 16.325 28.0641 16.725C27.4307 17.125 26.9307 17.675 26.5641 18.375C26.2141 19.075 26.0391 19.875 26.0391 20.775C26.0391 21.6583 26.2141 22.45 26.5641 23.15C26.9307 23.85 27.4307 24.3917 28.0641 24.775C28.7141 25.1583 29.4724 25.35 30.3391 25.35ZM49.4191 19.975C49.4191 21.6083 49.7275 22.9167 50.3441 23.9C50.9608 24.8667 51.9941 25.35 53.4441 25.35C54.9275 25.35 55.9691 24.8667 56.5691 23.9C57.1858 22.9167 57.4941 21.6083 57.4941 19.975V10.475H64.9941V20.775C64.9941 22.975 64.5358 24.8917 63.6191 26.525C62.7191 28.1417 61.4108 29.3917 59.6941 30.275C57.9775 31.1583 55.8941 31.6 53.4441 31.6C51.0108 31.6 48.9358 31.1583 47.2191 30.275C45.5025 29.3917 44.1941 28.1417 43.2941 26.525C42.3941 24.8917 41.9441 22.975 41.9441 20.775V10.475H49.4191V19.975ZM86.9691 25.625C87.9191 25.625 88.7025 25.4667 89.3191 25.15C89.9358 24.8167 90.3525 24.55 90.5691 24.35L94.0441 29.5C93.7775 29.7167 93.3191 30 92.6691 30.35C92.0191 30.6833 91.2025 30.975 90.2191 31.225C89.2525 31.475 88.1441 31.6 86.8941 31.6C84.5441 31.6 82.4775 31.1583 80.6941 30.275C78.9108 29.375 77.5191 28.1083 76.5191 26.475C75.5358 24.8417 75.0441 22.925 75.0441 20.725C75.0441 18.5083 75.5358 16.5917 76.5191 14.975C77.5191 13.3583 78.9108 12.1083 80.6941 11.225C82.4775 10.325 84.5441 9.875 86.8941 9.875C88.1275 9.875 89.2275 10.0083 90.1941 10.275C91.1775 10.525 92.0025 10.8167 92.6691 11.15C93.3358 11.4667 93.8025 11.7417 94.0691 11.975L90.5191 17.175C90.4025 17.0583 90.1858 16.8917 89.8691 16.675C89.5691 16.4583 89.1775 16.2667 88.6941 16.1C88.2108 15.9333 87.6358 15.85 86.9691 15.85C86.1525 15.85 85.3858 16.0583 84.6691 16.475C83.9691 16.8917 83.4025 17.4667 82.9691 18.2C82.5358 18.9333 82.3191 19.775 82.3191 20.725C82.3191 21.675 82.5358 22.525 82.9691 23.275C83.4025 24.0083 83.9691 24.5833 84.6691 25C85.3858 25.4167 86.1525 25.625 86.9691 25.625ZM104.083 31.6C101.833 31.6 99.8332 31.1417 98.0832 30.225C96.3499 29.2917 94.9832 28.0167 93.9832 26.4C92.9999 24.7667 92.5082 22.9 92.5082 20.8C92.5082 18.7 92.9999 16.8333 93.9832 15.2C94.9832 13.55 96.3499 12.25 98.0832 11.3C99.8332 10.35 101.833 9.875 104.083 9.875C106.333 9.875 108.317 10.35 110.033 11.3C111.75 12.25 113.092 13.55 114.058 15.2C115.025 16.8333 115.508 18.7 115.508 20.8C115.508 22.9 115.025 24.7667 114.058 26.4C113.092 28.0167 111.75 29.2917 110.033 30.225C108.317 31.1417 106.333 31.6 104.083 31.6ZM104.083 25.35C104.95 25.35 105.7 25.1583 106.333 24.775C106.967 24.3917 107.458 23.85 107.808 23.15C108.158 22.45 108.333 21.6583 108.333 20.775C108.333 19.875 108.158 19.075 107.808 18.375C107.458 17.675 106.967 17.125 106.333 16.725C105.7 16.325 104.95 16.125 104.083 16.125C103.217 16.125 102.458 16.325 101.808 16.725C101.175 17.125 100.675 17.675 100.308 18.375C99.9582 19.075 99.7832 19.875 99.7832 20.775C99.7832 21.6583 99.9582 22.45 100.308 23.15C100.675 23.85 101.175 24.3917 101.808 24.775C102.458 25.1583 103.217 25.35 104.083 25.35ZM123.163 19.975C123.163 21.6083 123.472 22.9167 124.088 23.9C124.705 24.8667 125.738 25.35 127.188 25.35C128.672 25.35 129.713 24.8667 130.313 23.9C130.93 22.9167 131.238 21.6083 131.238 19.975V10.475H138.738V20.775C138.738 22.975 138.28 24.8917 137.363 26.525C136.463 28.1417 135.155 29.3917 133.438 30.275C131.722 31.1583 129.638 31.6 127.188 31.6C124.755 31.6 122.68 31.1583 120.963 30.275C119.247 29.3917 117.938 28.1417 117.038 26.525C116.138 24.8917 115.688 22.975 115.688 20.775V10.475H123.163V19.975Z" fill="white"/>
<path d="M36.29 42C36.17 42 36.07 41.96 35.99 41.88C35.9167 41.8 35.88 41.7033 35.88 41.59V35.4C35.88 35.2867 35.9167 35.1933 35.99 35.12C36.07 35.04 36.1667 35 36.28 35H39.79C39.9033 35 40 35.0367 40.08 35.11C40.16 35.1833 40.2 35.2767 40.2 35.39C40.2 35.4967 40.16 35.5867 40.08 35.66C40 35.7333 39.9033 35.77 39.79 35.77H36.64L36.7 35.69V38.14L36.65 38.03H39.34C39.4533 38.03 39.55 38.07 39.63 38.15C39.71 38.2233 39.75 38.3167 39.75 38.43C39.75 38.53 39.71 38.62 39.63 38.7C39.55 38.7733 39.4533 38.81 39.34 38.81H36.63L36.7 38.72V41.59C36.7 41.7033 36.66 41.8 36.58 41.88C36.5 41.96 36.4033 42 36.29 42ZM47.632 36.04L45.282 41.76C45.2554 41.84 45.2087 41.9033 45.142 41.95C45.0754 41.9967 45.0054 42.02 44.932 42.02C44.8054 42.02 44.712 41.9867 44.652 41.92C44.592 41.8533 44.562 41.7733 44.562 41.68C44.5554 41.6333 44.562 41.5833 44.582 41.53L47.172 35.23C47.2054 35.1367 47.2554 35.07 47.322 35.03C47.3954 34.9833 47.4754 34.9633 47.562 34.97C47.6487 34.97 47.7254 34.9933 47.792 35.04C47.8654 35.0867 47.9154 35.15 47.942 35.23L50.522 41.47C50.542 41.5233 50.552 41.5767 50.552 41.63C50.552 41.75 50.512 41.8467 50.432 41.92C50.352 41.9867 50.262 42.02 50.162 42.02C50.082 42.02 50.0087 41.9967 49.942 41.95C49.8754 41.9033 49.8254 41.8367 49.792 41.75L47.412 36.03L47.632 36.04ZM45.782 40.13L46.122 39.35H49.092L49.242 40.13H45.782ZM57.6876 42.1C57.1942 42.1 56.7609 42.0267 56.3876 41.88C56.0142 41.7333 55.6542 41.5 55.3076 41.18C55.2609 41.1333 55.2209 41.0833 55.1876 41.03C55.1609 40.97 55.1476 40.9067 55.1476 40.84C55.1476 40.7333 55.1842 40.64 55.2576 40.56C55.3376 40.4733 55.4342 40.43 55.5476 40.43C55.6409 40.43 55.7242 40.4667 55.7976 40.54C56.0576 40.7933 56.3376 40.9867 56.6376 41.12C56.9442 41.2533 57.2876 41.32 57.6676 41.32C57.9609 41.32 58.2242 41.2733 58.4576 41.18C58.6976 41.0867 58.8876 40.9567 59.0276 40.79C59.1676 40.6233 59.2376 40.43 59.2376 40.21C59.2309 39.9433 59.1509 39.7233 58.9976 39.55C58.8509 39.3767 58.6442 39.2333 58.3776 39.12C58.1176 39 57.8142 38.9 57.4676 38.82C57.1609 38.7467 56.8776 38.6567 56.6176 38.55C56.3642 38.4433 56.1442 38.3133 55.9576 38.16C55.7709 38 55.6242 37.81 55.5176 37.59C55.4176 37.3633 55.3676 37.1 55.3676 36.8C55.3676 36.42 55.4676 36.0867 55.6676 35.8C55.8676 35.5133 56.1442 35.2933 56.4976 35.14C56.8509 34.98 57.2576 34.9 57.7176 34.9C58.1242 34.9 58.5076 34.9667 58.8676 35.1C59.2342 35.2333 59.5276 35.4167 59.7476 35.65C59.8809 35.7767 59.9476 35.9 59.9476 36.02C59.9476 36.12 59.9042 36.2133 59.8176 36.3C59.7376 36.38 59.6442 36.42 59.5376 36.42C59.4642 36.42 59.3976 36.3933 59.3376 36.34C59.2242 36.2133 59.0809 36.1 58.9076 36C58.7342 35.9 58.5442 35.82 58.3376 35.76C58.1309 35.7 57.9242 35.67 57.7176 35.67C57.4109 35.67 57.1409 35.7167 56.9076 35.81C56.6742 35.8967 56.4909 36.0233 56.3576 36.19C56.2309 36.35 56.1676 36.5433 56.1676 36.77C56.1676 37.0233 56.2409 37.2333 56.3876 37.4C56.5342 37.56 56.7309 37.6933 56.9776 37.8C57.2242 37.9 57.4976 37.99 57.7976 38.07C58.1242 38.15 58.4242 38.2433 58.6976 38.35C58.9776 38.45 59.2176 38.5767 59.4176 38.73C59.6176 38.8833 59.7709 39.08 59.8776 39.32C59.9909 39.5533 60.0476 39.8433 60.0476 40.19C60.0476 40.5567 59.9442 40.8833 59.7376 41.17C59.5309 41.4567 59.2476 41.6833 58.8876 41.85C58.5342 42.01 58.1342 42.0933 57.6876 42.1ZM65.8098 35C65.9231 35 66.0198 35.04 66.0998 35.12C66.1798 35.1933 66.2198 35.29 66.2198 35.41V41.59C66.2198 41.7033 66.1764 41.8 66.0898 41.88C66.0098 41.96 65.9131 42 65.7998 42C65.6731 42 65.5731 41.96 65.4998 41.88C65.4264 41.8 65.3898 41.7033 65.3898 41.59V35.41C65.3898 35.29 65.4298 35.1933 65.5098 35.12C65.5898 35.04 65.6898 35 65.8098 35ZM70.4198 35C70.5398 35 70.6364 35.04 70.7098 35.12C70.7898 35.1933 70.8298 35.29 70.8298 35.41V41.59C70.8298 41.7033 70.7898 41.8 70.7098 41.88C70.6298 41.96 70.5298 42 70.4098 42C70.2964 42 70.1998 41.96 70.1198 41.88C70.0398 41.8 69.9998 41.7033 69.9998 41.59V35.41C69.9998 35.29 70.0398 35.1933 70.1198 35.12C70.2064 35.04 70.3064 35 70.4198 35ZM65.7698 38.05H70.4298L70.4198 38.83H65.7398L65.7698 38.05ZM77.417 41.59C77.417 41.7033 77.3737 41.8 77.287 41.88C77.207 41.96 77.1104 42 76.997 42C76.8704 42 76.7704 41.96 76.697 41.88C76.6237 41.8 76.587 41.7033 76.587 41.59V35.41C76.587 35.29 76.627 35.1933 76.707 35.12C76.787 35.04 76.887 35 77.007 35C77.1204 35 77.217 35.04 77.297 35.12C77.377 35.1933 77.417 35.29 77.417 35.41V41.59ZM89.4849 38.5C89.4849 39.0133 89.4016 39.49 89.2349 39.93C89.0683 40.3633 88.8349 40.7433 88.5349 41.07C88.2349 41.3967 87.8783 41.65 87.4649 41.83C87.0516 42.01 86.6016 42.1 86.1149 42.1C85.6216 42.1 85.1683 42.01 84.7549 41.83C84.3483 41.65 83.9949 41.3967 83.6949 41.07C83.3949 40.7433 83.1616 40.3633 82.9949 39.93C82.8283 39.49 82.7449 39.0133 82.7449 38.5C82.7449 37.98 82.8283 37.5033 82.9949 37.07C83.1616 36.63 83.3949 36.25 83.6949 35.93C83.9949 35.6033 84.3483 35.35 84.7549 35.17C85.1683 34.99 85.6216 34.9 86.1149 34.9C86.6016 34.9 87.0516 34.99 87.4649 35.17C87.8783 35.35 88.2349 35.6033 88.5349 35.93C88.8349 36.25 89.0683 36.63 89.2349 37.07C89.4016 37.5033 89.4849 37.98 89.4849 38.5ZM88.6249 38.5C88.6249 37.9533 88.5149 37.47 88.2949 37.05C88.0816 36.63 87.7883 36.3 87.4149 36.06C87.0416 35.82 86.6083 35.7 86.1149 35.7C85.6216 35.7 85.1849 35.82 84.8049 36.06C84.4316 36.3 84.1383 36.63 83.9249 37.05C83.7116 37.47 83.6049 37.9533 83.6049 38.5C83.6049 39.04 83.7116 39.5233 83.9249 39.95C84.1383 40.37 84.4316 40.7 84.8049 40.94C85.1849 41.18 85.6216 41.3 86.1149 41.3C86.6083 41.3 87.0416 41.18 87.4149 40.94C87.7883 40.7 88.0816 40.37 88.2949 39.95C88.5149 39.5233 88.6249 39.04 88.6249 38.5ZM99.9916 35C100.105 35 100.195 35.0367 100.262 35.11C100.328 35.1767 100.362 35.2633 100.362 35.37V41.58C100.362 41.7067 100.322 41.81 100.242 41.89C100.162 41.9633 100.065 42 99.9516 42C99.8916 42 99.8316 41.99 99.7716 41.97C99.7116 41.9433 99.665 41.91 99.6316 41.87L95.3516 36.21L95.5516 36.09V41.63C95.5516 41.7367 95.515 41.8267 95.4416 41.9C95.375 41.9667 95.285 42 95.1716 42C95.065 42 94.9783 41.9667 94.9116 41.9C94.845 41.8267 94.8116 41.7367 94.8116 41.63V35.4C94.8116 35.28 94.8483 35.1833 94.9216 35.11C95.0016 35.0367 95.095 35 95.2016 35C95.2616 35 95.3216 35.0133 95.3816 35.04C95.4483 35.06 95.4983 35.0933 95.5316 35.14L99.7516 40.72L99.6216 40.88V35.37C99.6216 35.2633 99.655 35.1767 99.7216 35.11C99.795 35.0367 99.885 35 99.9916 35Z" fill="white"/>
</svg>
